<svg width="48" height="48" viewBox="0 0 48 48" fill="none" xmlns="http://www.w3.org/2000/svg">
  <path d="M 13 35 L 10 38 C 8 40 7 39 7 35 L 7 11 C 7 8.791 8.791 7 11 7 L 37 7 C 39.209 7 41 8.791 41 11 L 41 29 C 41 31.209 39.209 33 37 33 L 17 33 C 15.667 33 14.334 33.666 13 35 Z M 16 18 C 14.895 18 14 18.895 14 20 C 14 21.105 14.895 22 16 22 C 17.105 22 18 21.105 18 20 C 18 18.895 17.105 18 16 18 Z M 24 18 C 22.895 18 22 18.895 22 20 C 22 21.105 22.895 22 24 22 C 25.105 22 26 21.105 26 20 C 26 18.895 25.105 18 24 18 Z M 32 18 C 30.895 18 30 18.895 30 20 C 30 21.105 30.895 22 32 22 C 33.105 22 34 21.105 34 20 C 34 18.895 33.105 18 32 18 Z" stroke-width="1" style="stroke-width: 1; fill: rgb(243, 243, 243);"></path>
</svg>